<svg width="307" height="247" viewBox="0 0 307 247" fill="none" xmlns="http://www.w3.org/2000/svg">
<g filter="url(#filter0_d_21_250)">
<path d="M247.93 189C239.937 189 232.594 187.737 225.902 185.212C219.303 182.594 213.494 178.994 208.475 174.411C203.549 169.829 199.738 164.498 197.043 158.419C194.348 152.247 193 145.607 193 138.5C193 131.393 194.348 124.8 197.043 118.721C199.738 112.549 203.549 107.171 208.475 102.589C213.494 98.0065 219.303 94.4528 225.902 91.9278C232.594 89.3093 239.937 88 247.93 88C255.924 88 263.22 89.2625 269.819 91.7875C276.511 94.3125 282.32 97.913 287.246 102.589C292.265 107.171 296.122 112.549 298.817 118.721C301.606 124.8 303 131.393 303 138.5C303 145.607 301.606 152.247 298.817 158.419C296.122 164.498 292.265 169.875 287.246 174.551C282.32 179.134 276.511 182.688 269.819 185.212C263.22 187.737 255.924 189 247.93 189ZM247.93 174.271C253.786 174.271 259.084 173.382 263.824 171.606C268.657 169.735 272.839 167.21 276.371 164.031C279.996 160.757 282.785 156.97 284.736 152.668C286.688 148.273 287.664 143.55 287.664 138.5C287.664 133.45 286.688 128.774 284.736 124.472C282.785 120.077 279.996 116.289 276.371 113.11C272.839 109.837 268.657 107.312 263.824 105.535C259.084 103.664 253.786 102.729 247.93 102.729C242.168 102.729 236.87 103.664 232.037 105.535C227.204 107.312 222.975 109.79 219.35 112.969C215.818 116.149 213.076 119.937 211.124 124.332C209.265 128.634 208.336 133.356 208.336 138.5C208.336 143.55 209.265 148.273 211.124 152.668C213.076 157.063 215.818 160.851 219.35 164.031C222.975 167.21 227.204 169.735 232.037 171.606C236.87 173.382 242.168 174.271 247.93 174.271Z" fill="#FFECCE"/>
</g>
<g filter="url(#filter1_d_21_250)">
<path fill-rule="evenodd" clip-rule="evenodd" d="M209.891 153.569C210.053 153.616 210.215 153.662 210.378 153.706C220.768 156.489 231.446 150.324 234.23 139.935C236.97 129.709 231.04 119.202 220.946 116.22L220.948 116.214C220.875 116.194 220.801 116.175 220.726 116.156C220.638 116.131 220.549 116.107 220.459 116.083C218.687 115.608 216.906 115.394 215.158 115.416C200.757 114.51 171.983 117.695 157.246 119.368L155.63 118.612C155.986 118.876 156.354 119.147 156.732 119.427C156.728 119.427 156.724 119.428 156.721 119.428L156.82 119.492C170.983 129.957 199.435 150.773 209.645 153.509L209.649 153.495C209.723 153.518 209.796 153.54 209.87 153.562L209.89 153.575L209.891 153.569Z" fill="#2B2D42"/>
</g>
<g filter="url(#filter2_d_21_250)">
<path fill-rule="evenodd" clip-rule="evenodd" d="M190.778 67.544C190.826 67.3827 190.872 67.2204 190.915 67.0571C193.699 56.6678 187.534 45.989 177.145 43.2052C166.919 40.4652 156.412 46.3951 153.43 56.4891L153.424 56.4875C153.404 56.5601 153.385 56.634 153.366 56.7091C153.341 56.7978 153.317 56.8868 153.293 56.9761C152.818 58.7484 152.603 60.5293 152.626 62.2779C151.72 76.6783 154.904 105.452 156.578 120.189L155.822 121.806C156.085 121.449 156.357 121.081 156.636 120.704C156.637 120.707 156.637 120.711 156.638 120.715L156.702 120.616C167.167 106.453 187.983 78.0003 190.719 67.79L190.705 67.7862C190.728 67.7127 190.75 67.639 190.772 67.565L190.784 67.5457L190.778 67.544Z" fill="#2B2D42"/>
</g>
<g filter="url(#filter3_d_21_250)">
<path fill-rule="evenodd" clip-rule="evenodd" d="M167.899 170.577C167.967 170.703 168.037 170.828 168.109 170.953C172.683 178.874 182.812 181.588 190.733 177.014C198.529 172.513 201.281 162.629 197.005 154.766L197.01 154.764C196.978 154.708 196.945 154.652 196.911 154.596C196.873 154.527 196.834 154.459 196.795 154.391C196.015 153.04 195.073 151.84 194.008 150.802C185.893 141.598 166.676 126.21 156.808 118.355L156.291 116.929C156.346 117.302 156.404 117.686 156.463 118.081C156.461 118.079 156.458 118.077 156.456 118.075L156.477 118.173C158.7 132.983 163.292 162.609 167.787 170.394L167.797 170.388C167.828 170.445 167.859 170.503 167.89 170.561L167.894 170.58L167.899 170.577Z" fill="#F6BD60"/>
</g>
<g filter="url(#filter4_d_21_250)">
<path fill-rule="evenodd" clip-rule="evenodd" d="M146.303 67.8078C146.234 67.6822 146.164 67.5571 146.092 67.4325C141.519 59.5113 131.39 56.7973 123.469 61.3706C115.672 65.872 112.92 75.7556 117.197 83.6187L117.192 83.6215C117.224 83.6769 117.257 83.7328 117.291 83.7893C117.329 83.8577 117.368 83.9259 117.407 83.994C118.187 85.3454 119.129 86.5452 120.194 87.5831C128.309 96.787 147.526 112.175 157.394 120.03L157.911 121.457C157.855 121.084 157.798 120.699 157.739 120.304C157.741 120.306 157.744 120.308 157.746 120.31L157.725 120.212C155.501 105.402 150.91 75.7762 146.415 67.9914L146.404 67.9975C146.374 67.9397 146.343 67.8819 146.312 67.8242L146.307 67.8051L146.303 67.8078Z" fill="#F6BD60"/>
</g>
<g filter="url(#filter5_d_21_250)">
<path d="M4 135.252V0H65.0982C76.1272 0 85.9655 1.73896 94.6133 5.21687C103.261 8.69478 110.53 13.5252 116.421 19.7081C122.436 25.8911 126.948 33.0401 129.956 41.1553C133.089 49.2704 134.656 58.094 134.656 67.626C134.656 77.1581 133.089 86.046 129.956 94.29C126.948 102.534 122.436 109.747 116.421 115.93C110.53 121.984 103.261 126.75 94.6133 130.228C85.9655 133.577 76.1272 135.252 65.0982 135.252H4ZM24.3034 117.283L23.7394 115.157H64.1582C72.5553 115.157 79.8244 113.998 85.9655 111.68C92.1067 109.232 97.1825 105.883 101.193 101.632C105.204 97.3815 108.212 92.3578 110.217 86.5613C112.222 80.7648 113.225 74.453 113.225 67.626C113.225 60.799 112.222 54.5517 110.217 48.8839C108.212 43.0874 105.204 38.0638 101.193 33.813C97.1825 29.4334 92.1067 26.0843 85.9655 23.7657C79.8244 21.3183 72.5553 20.0946 64.1582 20.0946H23.1754L24.3034 18.3556V117.283Z" fill="#FFECCE"/>
</g>
<g filter="url(#filter6_d_21_250)">
<path fill-rule="evenodd" clip-rule="evenodd" d="M103.192 84.6678C103.031 84.6201 102.868 84.5744 102.705 84.5306C92.3158 81.7468 81.6369 87.9123 78.8531 98.3015C76.1131 108.527 82.0431 119.034 92.1371 122.016L92.1354 122.022C92.208 122.042 92.2819 122.061 92.3571 122.08C92.4457 122.105 92.5347 122.129 92.624 122.153C94.3964 122.628 96.1772 122.843 97.9258 122.82C112.326 123.726 141.1 120.542 155.837 118.868L157.453 119.624C157.097 119.361 156.729 119.089 156.352 118.81C156.355 118.809 156.359 118.809 156.363 118.808L156.263 118.745C142.101 108.279 113.648 87.4629 103.438 84.727L103.434 84.741C103.361 84.7183 103.287 84.696 103.213 84.674L103.194 84.6616L103.192 84.6678Z" fill="#2B2D42"/>
</g>
<g filter="url(#filter7_d_21_250)">
<path fill-rule="evenodd" clip-rule="evenodd" d="M123.283 170.954C123.235 171.115 123.189 171.278 123.145 171.441C120.362 181.83 126.527 192.509 136.916 195.293C147.142 198.033 157.649 192.103 160.631 182.009L160.637 182.011C160.657 181.938 160.676 181.864 160.695 181.789C160.72 181.7 160.744 181.611 160.768 181.522C161.243 179.75 161.458 177.969 161.435 176.22C162.341 161.82 159.156 133.046 157.483 118.309L158.239 116.693C157.975 117.049 157.704 117.417 157.424 117.795C157.424 117.791 157.424 117.787 157.423 117.783L157.359 117.883C146.894 132.046 126.078 160.498 123.342 170.708L123.356 170.712C123.333 170.786 123.311 170.859 123.289 170.933L123.276 170.953L123.283 170.954Z" fill="#2B2D42"/>
</g>
<path d="M166.828 82.727V13.7878H219.353V24.0302H177.531V72.4846H219.353V82.727H166.828ZM172.278 52.4922V42.2499H213.902V52.4922H172.278Z" fill="#6973E2"/>
<g filter="url(#filter8_d_21_250)">
<path fill-rule="evenodd" clip-rule="evenodd" d="M208.719 108.786C208.844 108.718 208.969 108.648 209.094 108.576C217.015 104.002 219.729 93.8736 215.156 85.9524C210.654 78.1557 200.771 75.4038 192.908 79.6801L192.905 79.6754C192.85 79.7074 192.794 79.7403 192.737 79.7742C192.669 79.8124 192.601 79.8512 192.532 79.8905C191.181 80.6707 189.981 81.6126 188.943 82.6776C179.739 90.7923 164.352 110.009 156.496 119.878L155.07 120.395C155.443 120.339 155.827 120.281 156.222 120.222C156.22 120.224 156.218 120.227 156.216 120.229L156.315 120.208C171.124 117.985 200.75 113.393 208.535 108.898L208.529 108.888C208.587 108.857 208.645 108.826 208.702 108.795L208.721 108.791L208.719 108.786Z" fill="#F6BD60"/>
</g>
<g filter="url(#filter9_i_21_250)">
<circle cx="70.3129" cy="154.292" r="7.2222" fill="#FFCECE"/>
</g>
<path d="M127.556 211C122.693 211 118.165 210.232 113.971 208.696C109.776 207.098 106.099 204.824 102.938 201.874C99.8382 198.925 97.4069 195.422 95.6441 191.366C93.8814 187.249 93 182.732 93 177.816C93 173.145 93.9118 168.813 95.7353 164.818C97.6196 160.824 100.142 157.352 103.303 154.402C106.525 151.391 110.232 149.087 114.426 147.489C118.621 145.83 123.088 145 127.829 145C131.598 145 135.215 145.522 138.679 146.567C142.144 147.612 145.275 148.964 148.071 150.623C150.927 152.221 153.237 153.972 155 155.877L148.891 163.804C146.825 161.961 144.667 160.394 142.418 159.103C140.229 157.751 137.859 156.707 135.306 155.969C132.814 155.232 130.139 154.863 127.282 154.863C124.122 154.863 121.082 155.416 118.165 156.522C115.308 157.567 112.725 159.103 110.415 161.131C108.166 163.159 106.373 165.587 105.035 168.413C103.698 171.24 103.029 174.374 103.029 177.816C103.029 181.564 103.698 184.883 105.035 187.771C106.433 190.659 108.318 193.117 110.688 195.145C113.059 197.112 115.764 198.617 118.803 199.662C121.903 200.707 125.185 201.229 128.65 201.229C131.689 201.229 134.455 200.83 136.947 200.031C139.5 199.17 141.81 198.126 143.876 196.897C145.943 195.606 147.797 194.254 149.438 192.841L154.271 201.045C152.69 202.581 150.502 204.117 147.706 205.654C144.971 207.19 141.871 208.48 138.406 209.525C134.941 210.508 131.325 211 127.556 211Z" fill="#6973E2"/>
<g filter="url(#filter10_d_21_250)">
<path fill-rule="evenodd" clip-rule="evenodd" d="M105.353 129.878C105.228 129.947 105.103 130.017 104.978 130.089C97.057 134.662 94.343 144.791 98.9163 152.712C103.418 160.509 113.301 163.261 121.164 158.984L121.167 158.989C121.223 158.957 121.278 158.924 121.335 158.89C121.403 158.852 121.472 158.813 121.54 158.774C122.891 157.994 124.091 157.052 125.129 155.987C134.333 147.872 149.72 128.655 157.576 118.787L159.002 118.27C158.629 118.326 158.245 118.383 157.85 118.443C157.852 118.44 157.854 118.438 157.856 118.435L157.758 118.456C142.948 120.68 113.322 125.272 105.537 129.766L105.543 129.777C105.485 129.807 105.428 129.838 105.37 129.869L105.351 129.874L105.353 129.878Z" fill="#F6BD60"/>
</g>
<g filter="url(#filter11_i_21_250)">
<circle cx="149.1" cy="29.5453" r="7.2222" fill="#FFCECE"/>
</g>
<g filter="url(#filter12_i_21_250)">
<circle cx="248.898" cy="140.131" r="7.2222" fill="#FFCECE"/>
</g>
<path d="M40.0775 246.23C38.9275 246.23 37.8618 246.115 36.8805 245.885C35.9145 245.655 35.0252 245.31 34.2125 244.85C33.4152 244.39 32.6868 243.807 32.0275 243.102L33.5915 241.032C34.5882 242.059 35.6002 242.811 36.6275 243.286C37.6702 243.761 38.8278 243.999 40.1005 243.999C40.8978 243.999 41.6645 243.907 42.4005 243.723C43.1365 243.524 43.7422 243.232 44.2175 242.849C44.6928 242.45 44.9305 241.952 44.9305 241.354C44.9305 240.971 44.8002 240.656 44.5395 240.411C44.2788 240.166 43.9338 239.966 43.5045 239.813C43.0905 239.66 42.6382 239.537 42.1475 239.445C41.6568 239.353 41.1815 239.284 40.7215 239.238C40.2768 239.192 39.9012 239.154 39.5945 239.123C38.5672 238.985 37.6318 238.801 36.7885 238.571C35.9605 238.326 35.2475 238.019 34.6495 237.651C34.0668 237.283 33.6145 236.831 33.2925 236.294C32.9858 235.757 32.8325 235.136 32.8325 234.431C32.8325 233.68 33.0088 233.013 33.3615 232.43C33.7295 231.832 34.2355 231.334 34.8795 230.935C35.5388 230.521 36.2978 230.207 37.1565 229.992C38.0305 229.777 38.9735 229.67 39.9855 229.67C41.0588 229.67 42.0402 229.777 42.9295 229.992C43.8188 230.207 44.6085 230.529 45.2985 230.958C46.0038 231.372 46.5865 231.886 47.0465 232.499L45.3905 234.316C44.9612 233.795 44.4628 233.358 43.8955 233.005C43.3282 232.637 42.7072 232.361 42.0325 232.177C41.3732 231.993 40.6678 231.901 39.9165 231.901C39.0885 231.901 38.3448 231.993 37.6855 232.177C37.0262 232.361 36.5048 232.622 36.1215 232.959C35.7382 233.281 35.5465 233.68 35.5465 234.155C35.5465 234.569 35.6615 234.922 35.8915 235.213C36.1368 235.504 36.4742 235.75 36.9035 235.949C37.3328 236.133 37.8465 236.286 38.4445 236.409C39.0578 236.532 39.7325 236.639 40.4685 236.731C41.3885 236.838 42.2778 236.976 43.1365 237.145C43.9952 237.314 44.7618 237.551 45.4365 237.858C46.1112 238.149 46.6478 238.548 47.0465 239.054C47.4452 239.56 47.6445 240.219 47.6445 241.032C47.6445 242.075 47.3302 242.987 46.7015 243.769C46.0728 244.551 45.1912 245.157 44.0565 245.586C42.9372 246.015 41.6108 246.23 40.0775 246.23ZM54.7646 246V229.9H64.1716C65.1223 229.9 65.9886 230.122 66.7706 230.567C67.5679 230.996 68.2043 231.587 68.6796 232.338C69.1549 233.089 69.3926 233.925 69.3926 234.845C69.3926 235.811 69.1319 236.693 68.6106 237.49C68.0893 238.272 67.3993 238.901 66.5406 239.376C65.6819 239.836 64.7389 240.066 63.7116 240.066H57.2486V246H54.7646ZM57.2486 237.674H63.4816C64.0643 237.674 64.6009 237.544 65.0916 237.283C65.5976 237.022 65.9963 236.677 66.2876 236.248C66.5943 235.819 66.7476 235.351 66.7476 234.845C66.7476 234.37 66.5943 233.94 66.2876 233.557C65.9963 233.174 65.5976 232.867 65.0916 232.637C64.6009 232.407 64.0643 232.292 63.4816 232.292H57.2486V237.674ZM85.1735 246.23C83.7475 246.23 82.4442 246.023 81.2635 245.609C80.0828 245.18 79.0555 244.589 78.1815 243.838C77.3075 243.071 76.6328 242.19 76.1575 241.193C75.6822 240.181 75.4445 239.1 75.4445 237.95C75.4445 236.8 75.6822 235.727 76.1575 234.73C76.6328 233.718 77.3075 232.836 78.1815 232.085C79.0555 231.318 80.0828 230.728 81.2635 230.314C82.4442 229.885 83.7475 229.67 85.1735 229.67C86.5842 229.67 87.8798 229.885 89.0605 230.314C90.2412 230.728 91.2685 231.318 92.1425 232.085C93.0165 232.836 93.6912 233.718 94.1665 234.73C94.6572 235.727 94.9025 236.8 94.9025 237.95C94.9025 239.1 94.6572 240.181 94.1665 241.193C93.6912 242.19 93.0165 243.071 92.1425 243.838C91.2685 244.589 90.2412 245.18 89.0605 245.609C87.8798 246.023 86.5842 246.23 85.1735 246.23ZM85.1735 243.815C86.2315 243.815 87.1975 243.669 88.0715 243.378C88.9455 243.071 89.7045 242.657 90.3485 242.136C90.9925 241.599 91.4908 240.978 91.8435 240.273C92.1962 239.552 92.3725 238.778 92.3725 237.95C92.3725 237.122 92.1962 236.355 91.8435 235.65C91.4908 234.929 90.9925 234.308 90.3485 233.787C89.7045 233.25 88.9455 232.836 88.0715 232.545C87.1975 232.238 86.2315 232.085 85.1735 232.085C84.1155 232.085 83.1418 232.238 82.2525 232.545C81.3785 232.836 80.6195 233.25 79.9755 233.787C79.3315 234.308 78.8332 234.929 78.4805 235.65C78.1432 236.355 77.9745 237.122 77.9745 237.95C77.9745 238.778 78.1432 239.552 78.4805 240.273C78.8332 240.978 79.3315 241.599 79.9755 242.136C80.6195 242.657 81.3785 243.071 82.2525 243.378C83.1418 243.669 84.1155 243.815 85.1735 243.815ZM102.022 246V229.9H111.429C112.38 229.9 113.246 230.122 114.028 230.567C114.826 230.996 115.462 231.587 115.937 232.338C116.413 233.089 116.65 233.925 116.65 234.845C116.65 235.811 116.39 236.693 115.868 237.49C115.347 238.272 114.657 238.901 113.798 239.376C112.94 239.836 111.997 240.066 110.969 240.066H104.506V246H102.022ZM114.488 246L109.014 238.732L111.659 238.157L117.593 246.023L114.488 246ZM104.506 237.674H110.739C111.322 237.674 111.859 237.544 112.349 237.283C112.855 237.022 113.254 236.677 113.545 236.248C113.852 235.819 114.005 235.351 114.005 234.845C114.005 234.37 113.852 233.94 113.545 233.557C113.254 233.174 112.855 232.867 112.349 232.637C111.859 232.407 111.322 232.292 110.739 232.292H104.506V237.674ZM129.052 246V232.292H122.934V229.9H137.792V232.292H131.536V246H129.052ZM155.619 246V243.539H159.828V232.361H155.619V229.9H166.521V232.361H162.312V243.539H166.521V246H155.619ZM181.873 246.23C180.723 246.23 179.658 246.115 178.676 245.885C177.71 245.655 176.821 245.31 176.008 244.85C175.211 244.39 174.483 243.807 173.823 243.102L175.387 241.032C176.384 242.059 177.396 242.811 178.423 243.286C179.466 243.761 180.624 243.999 181.896 243.999C182.694 243.999 183.46 243.907 184.196 243.723C184.932 243.524 185.538 243.232 186.013 242.849C186.489 242.45 186.726 241.952 186.726 241.354C186.726 240.971 186.596 240.656 186.335 240.411C186.075 240.166 185.73 239.966 185.3 239.813C184.886 239.66 184.434 239.537 183.943 239.445C183.453 239.353 182.977 239.284 182.517 239.238C182.073 239.192 181.697 239.154 181.39 239.123C180.363 238.985 179.428 238.801 178.584 238.571C177.756 238.326 177.043 238.019 176.445 237.651C175.863 237.283 175.41 236.831 175.088 236.294C174.782 235.757 174.628 235.136 174.628 234.431C174.628 233.68 174.805 233.013 175.157 232.43C175.525 231.832 176.031 231.334 176.675 230.935C177.335 230.521 178.094 230.207 178.952 229.992C179.826 229.777 180.769 229.67 181.781 229.67C182.855 229.67 183.836 229.777 184.725 229.992C185.615 230.207 186.404 230.529 187.094 230.958C187.8 231.372 188.382 231.886 188.842 232.499L187.186 234.316C186.757 233.795 186.259 233.358 185.691 233.005C185.124 232.637 184.503 232.361 183.828 232.177C183.169 231.993 182.464 231.901 181.712 231.901C180.884 231.901 180.141 231.993 179.481 232.177C178.822 232.361 178.301 232.622 177.917 232.959C177.534 233.281 177.342 233.68 177.342 234.155C177.342 234.569 177.457 234.922 177.687 235.213C177.933 235.504 178.27 235.75 178.699 235.949C179.129 236.133 179.642 236.286 180.24 236.409C180.854 236.532 181.528 236.639 182.264 236.731C183.184 236.838 184.074 236.976 184.932 237.145C185.791 237.314 186.558 237.551 187.232 237.858C187.907 238.149 188.444 238.548 188.842 239.054C189.241 239.56 189.44 240.219 189.44 241.032C189.44 242.075 189.126 242.987 188.497 243.769C187.869 244.551 186.987 245.157 185.852 245.586C184.733 246.015 183.407 246.23 181.873 246.23ZM272.618 246.253C271.805 246.253 271.2 246.1 270.801 245.793C270.418 245.471 270.226 245.049 270.226 244.528C270.226 244.099 270.418 243.708 270.801 243.355C271.2 242.987 271.805 242.803 272.618 242.803C273.431 242.803 274.029 242.964 274.412 243.286C274.811 243.593 275.01 244.007 275.01 244.528C275.01 244.957 274.811 245.356 274.412 245.724C274.029 246.077 273.431 246.253 272.618 246.253Z" fill="black"/>
<path d="M205.654 246L213.52 229.9H216.418L224.238 246H221.501L216.096 234.914C215.958 234.623 215.82 234.339 215.682 234.063C215.544 233.787 215.406 233.511 215.268 233.235C215.145 232.959 215.022 232.668 214.9 232.361C214.777 232.054 214.654 231.717 214.532 231.349L215.268 231.326C215.13 231.694 214.992 232.039 214.854 232.361C214.731 232.683 214.601 232.99 214.463 233.281C214.325 233.572 214.187 233.864 214.049 234.155C213.911 234.431 213.773 234.715 213.635 235.006L208.276 246H205.654ZM209.081 242.228L210.07 239.836H219.615L220.006 242.228H209.081ZM230.544 246V229.9H239.951C240.902 229.9 241.768 230.122 242.55 230.567C243.347 230.996 243.984 231.587 244.459 232.338C244.934 233.089 245.172 233.925 245.172 234.845C245.172 235.811 244.911 236.693 244.39 237.49C243.869 238.272 243.179 238.901 242.32 239.376C241.461 239.836 240.518 240.066 239.491 240.066H233.028V246H230.544ZM243.01 246L237.536 238.732L240.181 238.157L246.115 246.023L243.01 246ZM233.028 237.674H239.261C239.844 237.674 240.38 237.544 240.871 237.283C241.377 237.022 241.776 236.677 242.067 236.248C242.374 235.819 242.527 235.351 242.527 234.845C242.527 234.37 242.374 233.94 242.067 233.557C241.776 233.174 241.377 232.867 240.871 232.637C240.38 232.407 239.844 232.292 239.261 232.292H233.028V237.674ZM257.574 246V232.292H251.456V229.9H266.314V232.292H260.058V246H257.574Z" fill="#F6BD60"/>
<defs>
<filter id="filter0_d_21_250" x="189" y="88" width="118" height="109" filterUnits="userSpaceOnUse" color-interpolation-filters="sRGB">
<feFlood flood-opacity="0" result="BackgroundImageFix"/>
<feColorMatrix in="SourceAlpha" type="matrix" values="0 0 0 0 0 0 0 0 0 0 0 0 0 0 0 0 0 0 127 0" result="hardAlpha"/>
<feOffset dy="4"/>
<feGaussianBlur stdDeviation="2"/>
<feComposite in2="hardAlpha" operator="out"/>
<feColorMatrix type="matrix" values="0 0 0 0 0 0 0 0 0 0 0 0 0 0 0 0 0 0 0.25 0"/>
<feBlend mode="normal" in2="BackgroundImageFix" result="effect1_dropShadow_21_250"/>
<feBlend mode="normal" in="SourceGraphic" in2="effect1_dropShadow_21_250" result="shape"/>
</filter>
<filter id="filter1_d_21_250" x="146.524" y="100.045" width="96.7468" height="66.7012" filterUnits="userSpaceOnUse" color-interpolation-filters="sRGB">
<feFlood flood-opacity="0" result="BackgroundImageFix"/>
<feColorMatrix in="SourceAlpha" type="matrix" values="0 0 0 0 0 0 0 0 0 0 0 0 0 0 0 0 0 0 127 0" result="hardAlpha"/>
<feOffset dy="4"/>
<feGaussianBlur stdDeviation="2"/>
<feComposite in2="hardAlpha" operator="out"/>
<feColorMatrix type="matrix" values="0 0 0 0 0 0 0 0 0 0 0 0 0 0 0 0 0 0 0.25 0"/>
<feBlend mode="normal" in2="BackgroundImageFix" result="effect1_dropShadow_21_250"/>
<feBlend mode="normal" in="SourceGraphic" in2="effect1_dropShadow_21_250" result="shape"/>
</filter>
<filter id="filter2_d_21_250" x="133.255" y="38.1647" width="66.7013" height="96.7468" filterUnits="userSpaceOnUse" color-interpolation-filters="sRGB">
<feFlood flood-opacity="0" result="BackgroundImageFix"/>
<feColorMatrix in="SourceAlpha" type="matrix" values="0 0 0 0 0 0 0 0 0 0 0 0 0 0 0 0 0 0 127 0" result="hardAlpha"/>
<feOffset dy="4"/>
<feGaussianBlur stdDeviation="2"/>
<feComposite in2="hardAlpha" operator="out"/>
<feColorMatrix type="matrix" values="0 0 0 0 0 0 0 0 0 0 0 0 0 0 0 0 0 0 0.25 0"/>
<feBlend mode="normal" in2="BackgroundImageFix" result="effect1_dropShadow_21_250"/>
<feBlend mode="normal" in="SourceGraphic" in2="effect1_dropShadow_21_250" result="shape"/>
</filter>
<filter id="filter3_d_21_250" x="137.762" y="108.755" width="71.3138" height="84.5399" filterUnits="userSpaceOnUse" color-interpolation-filters="sRGB">
<feFlood flood-opacity="0" result="BackgroundImageFix"/>
<feColorMatrix in="SourceAlpha" type="matrix" values="0 0 0 0 0 0 0 0 0 0 0 0 0 0 0 0 0 0 127 0" result="hardAlpha"/>
<feOffset dy="4"/>
<feGaussianBlur stdDeviation="2"/>
<feComposite in2="hardAlpha" operator="out"/>
<feColorMatrix type="matrix" values="0 0 0 0 0 0 0 0 0 0 0 0 0 0 0 0 0 0 0.25 0"/>
<feBlend mode="normal" in2="BackgroundImageFix" result="effect1_dropShadow_21_250"/>
<feBlend mode="normal" in="SourceGraphic" in2="effect1_dropShadow_21_250" result="shape"/>
</filter>
<filter id="filter4_d_21_250" x="105.126" y="53.0898" width="71.3138" height="84.5399" filterUnits="userSpaceOnUse" color-interpolation-filters="sRGB">
<feFlood flood-opacity="0" result="BackgroundImageFix"/>
<feColorMatrix in="SourceAlpha" type="matrix" values="0 0 0 0 0 0 0 0 0 0 0 0 0 0 0 0 0 0 127 0" result="hardAlpha"/>
<feOffset dy="4"/>
<feGaussianBlur stdDeviation="2"/>
<feComposite in2="hardAlpha" operator="out"/>
<feColorMatrix type="matrix" values="0 0 0 0 0 0 0 0 0 0 0 0 0 0 0 0 0 0 0.25 0"/>
<feBlend mode="normal" in2="BackgroundImageFix" result="effect1_dropShadow_21_250"/>
<feBlend mode="normal" in="SourceGraphic" in2="effect1_dropShadow_21_250" result="shape"/>
</filter>
<filter id="filter5_d_21_250" x="0" y="0" width="138.656" height="143.252" filterUnits="userSpaceOnUse" color-interpolation-filters="sRGB">
<feFlood flood-opacity="0" result="BackgroundImageFix"/>
<feColorMatrix in="SourceAlpha" type="matrix" values="0 0 0 0 0 0 0 0 0 0 0 0 0 0 0 0 0 0 127 0" result="hardAlpha"/>
<feOffset dy="4"/>
<feGaussianBlur stdDeviation="2"/>
<feComposite in2="hardAlpha" operator="out"/>
<feColorMatrix type="matrix" values="0 0 0 0 0 0 0 0 0 0 0 0 0 0 0 0 0 0 0.25 0"/>
<feBlend mode="normal" in2="BackgroundImageFix" result="effect1_dropShadow_21_250"/>
<feBlend mode="normal" in="SourceGraphic" in2="effect1_dropShadow_21_250" result="shape"/>
</filter>
<filter id="filter6_d_21_250" x="69.8126" y="79.4901" width="96.7468" height="66.7012" filterUnits="userSpaceOnUse" color-interpolation-filters="sRGB">
<feFlood flood-opacity="0" result="BackgroundImageFix"/>
<feColorMatrix in="SourceAlpha" type="matrix" values="0 0 0 0 0 0 0 0 0 0 0 0 0 0 0 0 0 0 127 0" result="hardAlpha"/>
<feOffset dy="4"/>
<feGaussianBlur stdDeviation="2"/>
<feComposite in2="hardAlpha" operator="out"/>
<feColorMatrix type="matrix" values="0 0 0 0 0 0 0 0 0 0 0 0 0 0 0 0 0 0 0.25 0"/>
<feBlend mode="normal" in2="BackgroundImageFix" result="effect1_dropShadow_21_250"/>
<feBlend mode="normal" in="SourceGraphic" in2="effect1_dropShadow_21_250" result="shape"/>
</filter>
<filter id="filter7_d_21_250" x="114.105" y="111.587" width="66.7013" height="96.7468" filterUnits="userSpaceOnUse" color-interpolation-filters="sRGB">
<feFlood flood-opacity="0" result="BackgroundImageFix"/>
<feColorMatrix in="SourceAlpha" type="matrix" values="0 0 0 0 0 0 0 0 0 0 0 0 0 0 0 0 0 0 127 0" result="hardAlpha"/>
<feOffset dy="4"/>
<feGaussianBlur stdDeviation="2"/>
<feComposite in2="hardAlpha" operator="out"/>
<feColorMatrix type="matrix" values="0 0 0 0 0 0 0 0 0 0 0 0 0 0 0 0 0 0 0.25 0"/>
<feBlend mode="normal" in2="BackgroundImageFix" result="effect1_dropShadow_21_250"/>
<feBlend mode="normal" in="SourceGraphic" in2="effect1_dropShadow_21_250" result="shape"/>
</filter>
<filter id="filter8_d_21_250" x="142.897" y="71.6097" width="84.5399" height="71.3138" filterUnits="userSpaceOnUse" color-interpolation-filters="sRGB">
<feFlood flood-opacity="0" result="BackgroundImageFix"/>
<feColorMatrix in="SourceAlpha" type="matrix" values="0 0 0 0 0 0 0 0 0 0 0 0 0 0 0 0 0 0 127 0" result="hardAlpha"/>
<feOffset dy="4"/>
<feGaussianBlur stdDeviation="2"/>
<feComposite in2="hardAlpha" operator="out"/>
<feColorMatrix type="matrix" values="0 0 0 0 0 0 0 0 0 0 0 0 0 0 0 0 0 0 0.25 0"/>
<feBlend mode="normal" in2="BackgroundImageFix" result="effect1_dropShadow_21_250"/>
<feBlend mode="normal" in="SourceGraphic" in2="effect1_dropShadow_21_250" result="shape"/>
</filter>
<filter id="filter9_i_21_250" x="63.0907" y="147.07" width="14.4443" height="18.4444" filterUnits="userSpaceOnUse" color-interpolation-filters="sRGB">
<feFlood flood-opacity="0" result="BackgroundImageFix"/>
<feBlend mode="normal" in="SourceGraphic" in2="BackgroundImageFix" result="shape"/>
<feColorMatrix in="SourceAlpha" type="matrix" values="0 0 0 0 0 0 0 0 0 0 0 0 0 0 0 0 0 0 127 0" result="hardAlpha"/>
<feOffset dy="4"/>
<feGaussianBlur stdDeviation="2"/>
<feComposite in2="hardAlpha" operator="arithmetic" k2="-1" k3="1"/>
<feColorMatrix type="matrix" values="0 0 0 0 0 0 0 0 0 0 0 0 0 0 0 0 0 0 0.25 0"/>
<feBlend mode="normal" in2="shape" result="effect1_innerShadow_21_250"/>
</filter>
<filter id="filter10_d_21_250" x="86.6355" y="103.741" width="84.5399" height="71.3138" filterUnits="userSpaceOnUse" color-interpolation-filters="sRGB">
<feFlood flood-opacity="0" result="BackgroundImageFix"/>
<feColorMatrix in="SourceAlpha" type="matrix" values="0 0 0 0 0 0 0 0 0 0 0 0 0 0 0 0 0 0 127 0" result="hardAlpha"/>
<feOffset dy="4"/>
<feGaussianBlur stdDeviation="2"/>
<feComposite in2="hardAlpha" operator="out"/>
<feColorMatrix type="matrix" values="0 0 0 0 0 0 0 0 0 0 0 0 0 0 0 0 0 0 0.25 0"/>
<feBlend mode="normal" in2="BackgroundImageFix" result="effect1_dropShadow_21_250"/>
<feBlend mode="normal" in="SourceGraphic" in2="effect1_dropShadow_21_250" result="shape"/>
</filter>
<filter id="filter11_i_21_250" x="141.878" y="22.3231" width="14.4443" height="18.4443" filterUnits="userSpaceOnUse" color-interpolation-filters="sRGB">
<feFlood flood-opacity="0" result="BackgroundImageFix"/>
<feBlend mode="normal" in="SourceGraphic" in2="BackgroundImageFix" result="shape"/>
<feColorMatrix in="SourceAlpha" type="matrix" values="0 0 0 0 0 0 0 0 0 0 0 0 0 0 0 0 0 0 127 0" result="hardAlpha"/>
<feOffset dy="4"/>
<feGaussianBlur stdDeviation="2"/>
<feComposite in2="hardAlpha" operator="arithmetic" k2="-1" k3="1"/>
<feColorMatrix type="matrix" values="0 0 0 0 0 0 0 0 0 0 0 0 0 0 0 0 0 0 0.25 0"/>
<feBlend mode="normal" in2="shape" result="effect1_innerShadow_21_250"/>
</filter>
<filter id="filter12_i_21_250" x="241.676" y="132.909" width="14.4443" height="18.4444" filterUnits="userSpaceOnUse" color-interpolation-filters="sRGB">
<feFlood flood-opacity="0" result="BackgroundImageFix"/>
<feBlend mode="normal" in="SourceGraphic" in2="BackgroundImageFix" result="shape"/>
<feColorMatrix in="SourceAlpha" type="matrix" values="0 0 0 0 0 0 0 0 0 0 0 0 0 0 0 0 0 0 127 0" result="hardAlpha"/>
<feOffset dy="4"/>
<feGaussianBlur stdDeviation="2"/>
<feComposite in2="hardAlpha" operator="arithmetic" k2="-1" k3="1"/>
<feColorMatrix type="matrix" values="0 0 0 0 0 0 0 0 0 0 0 0 0 0 0 0 0 0 0.25 0"/>
<feBlend mode="normal" in2="shape" result="effect1_innerShadow_21_250"/>
</filter>
</defs>
</svg>
