{
    "asset": {
        "version": "2.0",
        "generator": "Open Asset Import Library (assimp v5.2.cf7d3637)"
    },
    "extensionsUsed": [
        "KHR_materials_volume",
        "FB_ngon_encoding"
    ],
    "accessors": [
        {
            "bufferView": 0,
            "byteOffset": 0,
            "componentType": 5126,
            "count": 138876,
            "type": "VEC3",
            "max": [
                0.4944140911102295,
                0.49663862586021426,
                0.054420001804828647
            ],
            "min": [
                -0.48791730403900149,
                -0.500080943107605,
                -0.05034139007329941
            ]
        },
        {
            "bufferView": 1,
            "byteOffset": 0,
            "componentType": 5126,
            "count": 138876,
            "type": "VEC3",
            "max": [
                0.9999390244483948,
                0.9999391436576843,
                1.0
            ],
            "min": [
                -0.999471127986908,
                -0.9997250437736511,
                -1.0
            ]
        },
        {
            "bufferView": 2,
            "byteOffset": 0,
            "componentType": 5126,
            "count": 138876,
            "type": "VEC2",
            "max": [
                0.9995887875556946,
                0.9995495676994324
            ],
            "min": [
                0.00041117999353446066,
                0.00045043230056762695
            ]
        },
        {
            "bufferView": 3,
            "byteOffset": 0,
            "componentType": 5125,
            "count": 138876,
            "type": "SCALAR",
            "max": [
                138875
            ],
            "min": [
                0
            ]
        }
    ],
    "buffers": [
        {
            "byteLength": 4999536,
            "uri": "result.bin"
        }
    ],
    "bufferViews": [
        {
            "buffer": 0,
            "byteOffset": 0,
            "byteLength": 1666512,
            "target": 34962
        },
        {
            "buffer": 0,
            "byteOffset": 1666512,
            "byteLength": 1666512,
            "target": 34962
        },
        {
            "buffer": 0,
            "byteOffset": 3333024,
            "byteLength": 1111008,
            "target": 34962
        },
        {
            "buffer": 0,
            "byteOffset": 4444032,
            "byteLength": 555504,
            "target": 34963
        }
    ],
    "images": [
        {
            "name": "albedo",
            "uri": "data:image/png;base64,"
        }
    ],
    "materials": [
        {
            "name": "mat0",
            "pbrMetallicRoughness": {
                "baseColorTexture": {
                    "index": 0
                },
                "metallicFactor": 0.0
            },
            "doubleSided": true
        },
        {
            "name": "material"
        }
    ],
    "meshes": [
        {
            "name": "mesh",
            "primitives": [
                {
                    "mode": 4,
                    "material": 0,
                    "indices": 3,
                    "attributes": {
                        "POSITION": 0,
                        "NORMAL": 1,
                        "TEXCOORD_0": 2
                    }
                }
            ]
        }
    ],
    "nodes": [
        {
            "name": "mesh",
            "matrix": [
                1.0,
                0.0,
                0.0,
                0.0,
                0.0,
                -1.1920928955078126e-7,
                1.0000001192092896,
                0.0,
                0.0,
                -1.0000001192092896,
                -1.1920928955078126e-7,
                0.0,
                0.0,
                0.0,
                0.0,
                1.0
            ],
            "mesh": 0
        }
    ],
    "samplers": [
        {
            "magFilter": 9729,
            "minFilter": 9987
        }
    ],
    "scenes": [
        {
            "nodes": [
                0
            ]
        }
    ],
    "textures": [
        {
            "source": 0,
            "sampler": 0
        }
    ],
    "scene": 0
}