<svg width="12" height="11" viewBox="0 0 12 11" fill="none" xmlns="http://www.w3.org/2000/svg">
<path fill-rule="evenodd" clip-rule="evenodd" d="M1.66846 0.646447C1.4732 0.451184 1.15662 0.451184 0.961358 0.646447C0.766095 0.841709 0.766095 1.15829 0.961358 1.35355L5.12714 5.51933L0.646447 10C0.451184 10.1953 0.451184 10.5119 0.646447 10.7071C0.841709 10.9024 1.15829 10.9024 1.35355 10.7071L5.83424 6.22644L10.3149 10.7071C10.5102 10.9024 10.8268 10.9024 11.022 10.7071C11.2173 10.5119 11.2173 10.1953 11.022 10L6.54135 5.51933L10.7071 1.35357C10.9024 1.1583 10.9024 0.841722 10.7071 0.64646C10.5119 0.451198 10.1953 0.451198 10 0.64646L5.83424 4.81223L1.66846 0.646447Z" fill="white"/>
<path d="M0.961358 0.646447L0.890647 0.575736L0.890647 0.575736L0.961358 0.646447ZM1.66846 0.646447L1.73917 0.575736L1.73917 0.575736L1.66846 0.646447ZM0.961358 1.35355L0.890647 1.42426L0.890647 1.42426L0.961358 1.35355ZM5.12714 5.51933L5.19785 5.59004L5.26856 5.51933L5.19785 5.44862L5.12714 5.51933ZM0.646447 10L0.575736 9.92931L0.575736 9.92931L0.646447 10ZM0.646447 10.7071L0.575736 10.7778L0.575736 10.7778L0.646447 10.7071ZM1.35355 10.7071L1.42426 10.7778L1.42426 10.7778L1.35355 10.7071ZM5.83424 6.22644L5.90495 6.15573L5.83424 6.08502L5.76353 6.15573L5.83424 6.22644ZM10.3149 10.7071L10.3856 10.6364L10.3856 10.6364L10.3149 10.7071ZM11.022 10L10.9513 10.0707L10.9513 10.0707L11.022 10ZM6.54135 5.51933L6.47064 5.44862L6.39993 5.51933L6.47064 5.59004L6.54135 5.51933ZM10.7071 1.35357L10.6364 1.28286L10.6364 1.28286L10.7071 1.35357ZM10.7071 0.64646L10.6364 0.71717L10.6364 0.71717L10.7071 0.64646ZM10 0.64646L10.0707 0.71717L10.0707 0.71717L10 0.64646ZM5.83424 4.81223L5.76353 4.88294L5.83424 4.95365L5.90495 4.88294L5.83424 4.81223ZM1.03207 0.717157C1.18828 0.560948 1.44154 0.560948 1.59775 0.717157L1.73917 0.575736C1.50486 0.341421 1.12496 0.341421 0.890647 0.575736L1.03207 0.717157ZM1.03207 1.28284C0.875858 1.12663 0.875858 0.873367 1.03207 0.717157L0.890647 0.575736C0.656332 0.810051 0.656332 1.18995 0.890647 1.42426L1.03207 1.28284ZM5.19785 5.44862L1.03207 1.28284L0.890647 1.42426L5.05643 5.59004L5.19785 5.44862ZM0.717157 10.0707L5.19785 5.59004L5.05643 5.44862L0.575736 9.92931L0.717157 10.0707ZM0.717157 10.6364C0.560948 10.4802 0.560948 10.2269 0.717157 10.0707L0.575736 9.92931C0.341421 10.1636 0.341421 10.5435 0.575736 10.7778L0.717157 10.6364ZM1.28284 10.6364C1.12663 10.7926 0.873367 10.7926 0.717157 10.6364L0.575736 10.7778C0.810051 11.0122 1.18995 11.0122 1.42426 10.7778L1.28284 10.6364ZM5.76353 6.15573L1.28284 10.6364L1.42426 10.7778L5.90495 6.29715L5.76353 6.15573ZM10.3856 10.6364L5.90495 6.15573L5.76353 6.29715L10.2442 10.7778L10.3856 10.6364ZM10.9513 10.6364C10.7951 10.7926 10.5418 10.7926 10.3856 10.6364L10.2442 10.7778C10.4785 11.0121 10.8584 11.0121 11.0927 10.7778L10.9513 10.6364ZM10.9513 10.0707C11.1075 10.2269 11.1075 10.4802 10.9513 10.6364L11.0927 10.7778C11.3271 10.5435 11.3271 10.1636 11.0927 9.9293L10.9513 10.0707ZM6.47064 5.59004L10.9513 10.0707L11.0927 9.9293L6.61206 5.44862L6.47064 5.59004ZM10.6364 1.28286L6.47064 5.44862L6.61206 5.59004L10.7778 1.42428L10.6364 1.28286ZM10.6364 0.71717C10.7926 0.87338 10.7926 1.12665 10.6364 1.28286L10.7778 1.42428C11.0121 1.18996 11.0121 0.810064 10.7778 0.575749L10.6364 0.71717ZM10.0707 0.71717C10.2269 0.560961 10.4802 0.560961 10.6364 0.71717L10.7778 0.575749C10.5435 0.341434 10.1636 0.341435 9.9293 0.575749L10.0707 0.71717ZM5.90495 4.88294L10.0707 0.71717L9.9293 0.575749L5.76353 4.74152L5.90495 4.88294ZM1.59775 0.717157L5.76353 4.88294L5.90495 4.74152L1.73917 0.575736L1.59775 0.717157Z" fill="black"/>
</svg>
